<?xml version="1.0" encoding="UTF-8"?>
<svg id="Logo" xmlns="http://www.w3.org/2000/svg" xmlns:xlink="http://www.w3.org/1999/xlink" viewBox="0 0 1027.3 191.45">
  <defs>
    <style>
      .cls-1 {
        fill: url(#linear-gradient);
      }

      .cls-1, .cls-2, .cls-3, .cls-4 {
        stroke-width: 0px;
      }

      .cls-2 {
        fill: url(#linear-gradient-2);
      }

      .cls-3 {
        fill: #1a8a9e;
      }

      .cls-4 {
        fill: #368a9c;
      }
    </style>
    <linearGradient id="linear-gradient" x1="0" y1="51.19" x2="100.24" y2="51.19" gradientUnits="userSpaceOnUse">
      <stop offset="0" stop-color="#e5b731"/>
      <stop offset="1" stop-color="#00bfe7"/>
    </linearGradient>
    <linearGradient id="linear-gradient-2" x1="286.3" y1="72.82" x2="258.46" y2="121.05" xlink:href="#linear-gradient"/>
  </defs>
  <path class="cls-1" d="M91.37,40.07c-3.11,0-5.84,1.61-7.42,4.03l-10.23-4.75c.24-.81.38-1.66.38-2.55,0-3.26-1.77-6.1-4.39-7.64l4.77-11.69c.69.17,1.4.27,2.14.27,4.89,0,8.87-3.98,8.87-8.87S81.51,0,76.62,0s-8.87,3.98-8.87,8.87c0,3.26,1.77,6.1,4.39,7.64l-4.77,11.69c-.69-.17-1.4-.27-2.14-.27-4.89,0-8.87,3.98-8.87,8.87,0,1.39.33,2.7.9,3.87l-12.44,8.42c-2.01-2.34-4.99-3.82-8.31-3.82-2.73,0-5.22,1.01-7.14,2.66l-9.4-8.67c.98-1.43,1.56-3.16,1.56-5.02,0-4.89-3.98-8.87-8.87-8.87s-8.87,3.98-8.87,8.87,3.98,8.87,8.87,8.87c2.12,0,4.06-.75,5.59-1.99l9.41,8.68c-1.32,1.81-2.12,4.04-2.12,6.45,0,3.25,1.43,6.17,3.69,8.18l-8.39,11.96c-2.04-1.17-4.4-1.86-6.92-1.86-7.68,0-13.92,6.25-13.92,13.92s6.24,13.92,13.92,13.92,13.92-6.24,13.92-13.92c0-4.25-1.92-8.06-4.93-10.61l8.38-11.95c1.55.84,3.33,1.32,5.22,1.32,6.05,0,10.97-4.92,10.97-10.97,0-1.82-.45-3.54-1.25-5.06l12.44-8.42c1.62,1.78,3.96,2.91,6.55,2.91,3.11,0,5.84-1.61,7.42-4.03l10.23,4.75c-.24.81-.38,1.66-.38,2.55,0,4.89,3.98,8.87,8.87,8.87s8.87-3.98,8.87-8.87-3.98-8.87-8.87-8.87Z"/>
  <path class="cls-2" d="M291.6,109.37c0,3.34-.89,6.19-2.67,8.54-1.78,2.35-4.1,4.13-6.98,5.33-2.88,1.2-5.96,1.8-9.25,1.8s-6.6-.52-9.44-1.57c-2.85-1.04-5.2-2.57-7.05-4.59-.02-.02-.04-.04-.06-.06-2.76-3.03-1.13-7.94,2.85-8.91,0,0,2.64-.84,6.14,1.62.83.58,5.11,2.61,6.78,2.61,2.2,0,3.92-.59,5.17-1.76,1.25-1.18,1.88-2.73,1.88-4.66,0-1.15-.27-2.23-.82-3.25s-1.54-1.83-2.98-2.43c-1.44-.6-3.46-.9-6.07-.9h-2.04c-.29,0-.56-.06-.81-.17-2.32-.46-4.06-2.51-4.06-4.96,0-2.7,2.11-4.9,4.77-5.05.03,0,.07-.01.1-.01h.1s.06,0,.08,0,.06,0,.08,0h1.77c3.29,0,5.62-.55,6.98-1.65,1.36-1.1,2.04-2.59,2.04-4.47,0-1.1-.26-2.06-.78-2.9-.52-.84-1.25-1.5-2.19-2-.94-.5-2.01-.74-3.21-.74-.89,0-1.8.16-2.74.47-.94.31-1.77.9-2.59,1.65-3.33,3.01-7.06,2.11-7.06,2.11-4.04-.97-5.64-5.99-2.76-8.98.02-.02.04-.04.06-.06,1.96-2.01,4.3-3.53,7.02-4.55,2.72-1.02,5.51-1.53,8.39-1.53,3.45,0,6.57.64,9.37,1.92,2.79,1.28,5.02,3.06,6.66,5.33,1.65,2.27,2.47,4.93,2.47,7.96,0,2.61-.64,4.86-1.92,6.74-1.28,1.88-2.98,3.44-5.09,4.66-.59.34-1.19.65-1.82.94.98.48,1.92,1.01,2.8,1.61,2.14,1.46,3.83,3.19,5.06,5.17,1.23,1.99,1.84,4.23,1.84,6.74Z"/>
  <path class="cls-3" d="M62.32,190.74h0c7.54,0,13.64-6.11,13.64-13.64v-24.6c0-.67.55-1.22,1.22-1.22h18.95c8.48,0,15.99-1.75,22.54-5.26,6.55-3.5,11.67-8.3,15.34-14.41,3.67-6.1,5.51-13.11,5.51-21.02s-1.89-14.92-5.68-21.02c-3.79-6.1-9.01-10.88-15.68-14.32-6.67-3.44-14.3-5.17-22.88-5.17h-31.36c-8.43,0-15.26,6.83-15.26,15.26v91.75c0,7.54,6.11,13.64,13.64,13.64ZM75.97,96.22c0-.67.55-1.22,1.22-1.22h17.43c5.09,0,9.18,1.44,12.29,4.32,3.11,2.88,4.66,6.64,4.66,11.27s-1.47,8.39-4.41,11.27c-2.94,2.88-6.84,4.32-11.69,4.32h-18.27c-.67,0-1.22-.55-1.22-1.22v-28.75Z"/>
  <path class="cls-3" d="M230.21,186.19c7.23-3.05,13.5-7.31,18.81-12.8.89-.92,1.75-1.87,2.57-2.84,6.12-7.26,3.01-18.41-5.99-21.45h0c-5.5-1.86-11.56.02-15.05,4.66-.63.84-1.28,1.65-1.96,2.43-2.66,3.05-5.79,5.42-9.41,7.12-3.62,1.7-7.74,2.54-12.37,2.54-6.33,0-11.95-1.55-16.87-4.66-4.92-3.11-8.76-7.4-11.53-12.88-2.77-5.48-4.15-11.78-4.15-18.9s1.36-13.42,4.07-18.9c2.71-5.48,6.5-9.75,11.36-12.8,4.86-3.05,10.4-4.58,16.61-4.58,4.41,0,8.45.79,12.12,2.37,3.67,1.58,6.95,3.84,9.83,6.78.83.85,1.62,1.74,2.35,2.68,3.44,4.38,9.33,6.03,14.61,4.25h0c8.92-3.01,12-14.09,5.9-21.27-.81-.95-1.65-1.88-2.53-2.78-5.25-5.42-11.47-9.63-18.65-12.63-7.18-2.99-15.06-4.49-23.64-4.49-11.75,0-22.12,2.63-31.11,7.88-8.98,5.25-16.05,12.49-21.19,21.7-5.14,9.21-7.71,19.81-7.71,31.78s2.57,22.57,7.71,31.78c5.14,9.21,12.2,16.44,21.19,21.7,8.98,5.26,19.35,7.88,31.11,7.88,8.7,0,16.67-1.53,23.9-4.58Z"/>
  <g>
    <path class="cls-4" d="M340.83,119.83v-38.35h13.25c2.3,0,4.38.45,6.25,1.34,1.87.89,3.37,2.25,4.5,4.06,1.13,1.81,1.7,4.11,1.7,6.88s-.56,5-1.68,6.79-2.63,3.13-4.52,4.02c-1.89.88-3.97,1.33-6.25,1.33h-5.7v13.93h-7.55ZM348.38,99.88h4.9c1.61,0,2.93-.52,3.96-1.55,1.03-1.04,1.54-2.56,1.54-4.57,0-2.13-.52-3.7-1.57-4.73-1.04-1.03-2.36-1.54-3.93-1.54h-4.9v12.39Z"/>
    <path class="cls-4" d="M388.2,120.34c-3.65,0-6.7-.81-9.15-2.42-2.45-1.61-4.29-3.89-5.53-6.84-1.24-2.94-1.85-6.41-1.85-10.4s.62-7.48,1.85-10.43c1.23-2.94,3.08-5.23,5.53-6.85s5.5-2.44,9.15-2.44,6.66.81,9.1,2.44,4.28,3.91,5.51,6.87c1.23,2.95,1.85,6.42,1.85,10.41s-.62,7.45-1.85,10.38c-1.24,2.93-3.07,5.21-5.51,6.84s-5.47,2.44-9.1,2.44ZM388.2,114.16c2.15,0,3.86-.61,5.13-1.82s2.19-2.84,2.75-4.89c.56-2.04.84-4.3.84-6.77s-.28-4.79-.84-6.84c-.56-2.05-1.48-3.68-2.75-4.89s-2.98-1.81-5.13-1.81-3.91.61-5.19,1.82c-1.27,1.22-2.18,2.84-2.74,4.89-.55,2.04-.83,4.32-.83,6.82s.27,4.7.83,6.74c.55,2.04,1.46,3.67,2.74,4.9,1.27,1.23,3,1.84,5.19,1.84Z"/>
    <path class="cls-4" d="M411.97,119.83v-38.35h7.55v31.71h13.9v6.64h-21.45Z"/>
    <path class="cls-4" d="M442.47,119.83v-14.5l-11.42-23.85h8.35l6.92,16.84,6.95-16.84h8.32l-11.4,23.85v14.5h-7.72Z"/>
    <path class="cls-4" d="M466.76,119.83v-38.35h8.63l10.4,20.94h-3.13l10.46-20.94h8.18v38.35h-7.32v-34.53h3.42l-11.03,22.22h-4.73l-11.28-22.22h3.5v34.53h-7.09Z"/>
    <path class="cls-4" d="M510.15,119.83v-38.35h22.82v6.18h-15.27v9.57h13.82v5.96h-13.82v10.49h15.27v6.15h-22.82Z"/>
    <path class="cls-4" d="M540.7,119.83v-38.35h14.02c2.22,0,4.2.35,5.94,1.04,1.74.69,3.11,1.81,4.13,3.35,1.02,1.54,1.52,3.58,1.52,6.13s-.57,4.49-1.7,6.17c-1.13,1.68-2.88,2.86-5.26,3.55,1.5.25,2.68.75,3.55,1.51.86.76,1.55,1.77,2.07,3.02s.98,2.75,1.4,4.5l2.25,9.09h-7.98l-1.51-7.66c-.3-1.63-.67-2.99-1.08-4.08-.42-1.08-1.02-1.89-1.79-2.44-.78-.54-1.86-.81-3.25-.81h-4.76v14.99h-7.55ZM548.25,98.66h5.13c1.1,0,2.04-.22,2.81-.66.77-.44,1.36-1.08,1.78-1.92.42-.85.63-1.87.63-3.06,0-1.75-.44-3.07-1.32-3.97-.88-.9-2.11-1.35-3.69-1.35h-5.33v10.97Z"/>
    <path class="cls-4" d="M602.18,120.34c-3.57,0-6.59-.81-9.05-2.44s-4.32-3.9-5.58-6.84c-1.26-2.93-1.89-6.4-1.89-10.38s.63-7.46,1.89-10.41c1.26-2.95,3.12-5.24,5.58-6.87s5.48-2.44,9.05-2.44c2.87,0,5.39.49,7.58,1.48s3.93,2.46,5.24,4.4c1.31,1.95,2.09,4.37,2.34,7.28h-7.72c-.21-1.58-.64-2.88-1.3-3.9s-1.5-1.79-2.54-2.31c-1.04-.51-2.24-.77-3.6-.77-2.18,0-3.91.62-5.19,1.87-1.27,1.24-2.18,2.89-2.74,4.94-.55,2.05-.83,4.29-.83,6.72s.27,4.64.83,6.68c.55,2.04,1.46,3.69,2.74,4.93,1.27,1.24,3,1.87,5.19,1.87,2.34,0,4.1-.68,5.3-2.04,1.2-1.36,1.92-3.26,2.17-5.71h7.75c-.23,3.02-.95,5.57-2.15,7.65-1.21,2.08-2.9,3.65-5.07,4.7-2.17,1.05-4.84,1.58-7.99,1.58Z"/>
    <path class="cls-4" d="M624.51,119.83v-38.35h7.55v31.71h13.9v6.64h-21.45Z"/>
    <path class="cls-4" d="M665.27,120.37c-3.32,0-6.04-.56-8.15-1.68-2.11-1.12-3.66-2.76-4.66-4.93-1-2.17-1.5-4.82-1.5-7.98v-24.3h7.75v24.7c0,2.56.48,4.54,1.45,5.94.97,1.4,2.68,2.09,5.13,2.09s4.16-.7,5.09-2.09c.92-1.4,1.38-3.38,1.38-5.94v-24.7h7.75v24.3c0,3.13-.49,5.79-1.48,7.96-.99,2.17-2.53,3.82-4.62,4.94-2.09,1.12-4.81,1.68-8.15,1.68Z"/>
    <path class="cls-4" d="M699.77,120.34c-2.68,0-5.06-.4-7.14-1.21-2.08-.81-3.71-2.08-4.9-3.82-1.19-1.74-1.78-4.01-1.78-6.82h7.72c.06,1.42.36,2.56.9,3.4.54.85,1.27,1.45,2.19,1.82.92.37,1.95.56,3.09.56s2.05-.17,2.89-.5c.85-.33,1.51-.84,2-1.54s.73-1.58.73-2.66-.21-2-.64-2.74c-.43-.74-1.17-1.4-2.22-1.98-1.05-.58-2.54-1.18-4.46-1.81-2.28-.74-4.28-1.58-6-2.52-1.72-.94-3.06-2.14-4.03-3.59s-1.45-3.32-1.45-5.6.55-4.3,1.65-5.83c1.1-1.53,2.6-2.66,4.5-3.4,1.9-.74,4.08-1.11,6.53-1.11s4.55.38,6.47,1.15c1.92.77,3.44,1.93,4.57,3.49,1.13,1.56,1.72,3.53,1.78,5.93h-7.72c-.08-1.61-.6-2.8-1.58-3.55s-2.16-1.13-3.55-1.13-2.58.32-3.53.97c-.95.65-1.42,1.65-1.42,3.02,0,.87.21,1.64.63,2.29.42.66,1.19,1.27,2.31,1.85,1.12.58,2.71,1.21,4.76,1.89,2.49.82,4.56,1.71,6.21,2.69,1.65.98,2.89,2.21,3.7,3.7.82,1.49,1.22,3.39,1.22,5.68,0,2.51-.56,4.6-1.68,6.28-1.12,1.68-2.69,2.95-4.7,3.79-2.01.84-4.36,1.27-7.04,1.27Z"/>
    <path class="cls-4" d="M725.68,119.83v-32.14h-8.92v-6.21h25.3v6.21h-8.83v32.14h-7.55Z"/>
    <path class="cls-4" d="M747.42,119.83v-38.35h22.82v6.18h-15.27v9.57h13.82v5.96h-13.82v10.49h15.27v6.15h-22.82Z"/>
    <path class="cls-4" d="M777.96,119.83v-38.35h14.02c2.22,0,4.2.35,5.94,1.04,1.74.69,3.11,1.81,4.13,3.35,1.02,1.54,1.52,3.58,1.52,6.13s-.57,4.49-1.7,6.17c-1.13,1.68-2.88,2.86-5.26,3.55,1.5.25,2.68.75,3.55,1.51.86.76,1.55,1.77,2.07,3.02s.98,2.75,1.4,4.5l2.25,9.09h-7.98l-1.51-7.66c-.3-1.63-.67-2.99-1.08-4.08-.42-1.08-1.02-1.89-1.79-2.44-.78-.54-1.86-.81-3.25-.81h-4.76v14.99h-7.55ZM785.51,98.66h5.13c1.1,0,2.04-.22,2.81-.66.77-.44,1.36-1.08,1.78-1.92.42-.85.63-1.87.63-3.06,0-1.75-.44-3.07-1.32-3.97-.88-.9-2.11-1.35-3.69-1.35h-5.33v10.97Z"/>
    <path class="cls-4" d="M356.13,178.34c-3.67,0-6.73-.83-9.19-2.48s-4.31-3.96-5.54-6.91c-1.23-2.95-1.85-6.38-1.85-10.27s.62-7.35,1.85-10.3c1.24-2.95,3.08-5.26,5.54-6.92,2.46-1.66,5.52-2.49,9.19-2.49,2.49,0,4.79.44,6.9,1.31s3.85,2.2,5.23,3.99c1.38,1.79,2.18,4.06,2.41,6.81h-4.96c-.23-1.86-.8-3.39-1.71-4.59-.91-1.2-2.05-2.08-3.42-2.66-1.37-.58-2.85-.87-4.45-.87-2.79,0-5.03.7-6.71,2.09-1.68,1.4-2.9,3.28-3.65,5.66-.75,2.38-1.13,5.03-1.13,7.98s.38,5.55,1.13,7.92c.75,2.37,1.97,4.25,3.65,5.64,1.68,1.39,3.92,2.08,6.71,2.08s5.08-.73,6.74-2.19,2.65-3.66,2.95-6.58h4.99c-.29,2.89-1.07,5.28-2.37,7.17-1.29,1.89-2.99,3.3-5.09,4.23-2.1.93-4.51,1.4-7.22,1.4Z"/>
    <path class="cls-4" d="M391.98,178.34c-3.7,0-6.78-.83-9.23-2.48s-4.29-3.96-5.51-6.91c-1.23-2.95-1.84-6.38-1.84-10.27s.61-7.32,1.84-10.29c1.22-2.96,3.06-5.28,5.51-6.94,2.45-1.66,5.53-2.49,9.23-2.49s6.75.83,9.19,2.49c2.44,1.66,4.27,3.97,5.5,6.92,1.22,2.95,1.84,6.39,1.84,10.3s-.61,7.32-1.84,10.27c-1.23,2.95-3.06,5.26-5.5,6.91-2.44,1.65-5.5,2.48-9.19,2.48ZM391.98,174.35c2.77,0,5-.69,6.67-2.08,1.67-1.39,2.89-3.27,3.65-5.64s1.14-5.02,1.14-7.95-.38-5.61-1.14-7.99-1.98-4.27-3.65-5.66c-1.67-1.39-3.89-2.08-6.67-2.08s-5,.7-6.7,2.09c-1.69,1.4-2.91,3.28-3.66,5.66-.75,2.38-1.13,5.03-1.13,7.98s.38,5.57,1.13,7.93c.75,2.37,1.97,4.25,3.66,5.64s3.92,2.09,6.7,2.09Z"/>
    <path class="cls-4" d="M415.16,177.83v-38.35h5.16l18.63,30.91v-30.91h4.56v38.35h-5.19l-18.63-30.94v30.94h-4.53Z"/>
    <path class="cls-4" d="M451.85,177.83v-38.35h5.16l18.63,30.91v-30.91h4.56v38.35h-5.19l-18.63-30.94v30.94h-4.53Z"/>
    <path class="cls-4" d="M488.53,177.83v-38.35h22.22v4.07h-17.29v12.54h15.93v3.99h-15.93v13.68h17.29v4.07h-22.22Z"/>
    <path class="cls-4" d="M531.53,178.34c-3.67,0-6.73-.83-9.19-2.48s-4.31-3.96-5.54-6.91c-1.23-2.95-1.85-6.38-1.85-10.27s.62-7.35,1.85-10.3c1.24-2.95,3.08-5.26,5.54-6.92,2.46-1.66,5.52-2.49,9.19-2.49,2.49,0,4.79.44,6.9,1.31s3.85,2.2,5.23,3.99c1.38,1.79,2.18,4.06,2.41,6.81h-4.96c-.23-1.86-.8-3.39-1.71-4.59-.91-1.2-2.05-2.08-3.42-2.66-1.37-.58-2.85-.87-4.45-.87-2.79,0-5.03.7-6.71,2.09-1.68,1.4-2.9,3.28-3.65,5.66-.75,2.38-1.13,5.03-1.13,7.98s.38,5.55,1.13,7.92c.75,2.37,1.97,4.25,3.65,5.64,1.68,1.39,3.92,2.08,6.71,2.08s5.08-.73,6.74-2.19,2.65-3.66,2.95-6.58h4.99c-.29,2.89-1.07,5.28-2.37,7.17-1.29,1.89-2.99,3.3-5.09,4.23-2.1.93-4.51,1.4-7.22,1.4Z"/>
    <path class="cls-4" d="M558.49,177.83v-34.25h-9.8v-4.1h24.5v4.1h-9.74v34.25h-4.96Z"/>
    <path class="cls-4" d="M577.8,177.83v-38.35h4.93v38.35h-4.93Z"/>
    <path class="cls-4" d="M599.6,177.83l-12.42-38.35h5.27l10.09,33.19,10.14-33.19h5.24l-12.54,38.35h-5.78Z"/>
    <path class="cls-4" d="M622.36,177.83v-38.35h4.93v38.35h-4.93Z"/>
    <path class="cls-4" d="M641.7,177.83v-34.25h-9.8v-4.1h24.5v4.1h-9.74v34.25h-4.96Z"/>
    <path class="cls-4" d="M670.7,177.83v-15.36l-11.85-22.99h5.38l9,18.58,8.97-18.58h5.39l-11.88,22.99v15.36h-5.01Z"/>
    <path class="cls-4" d="M717.99,178.34c-3.67,0-6.73-.83-9.19-2.48s-4.31-3.96-5.54-6.91c-1.23-2.95-1.85-6.38-1.85-10.27s.62-7.35,1.85-10.3c1.24-2.95,3.08-5.26,5.54-6.92,2.46-1.66,5.52-2.49,9.19-2.49,2.49,0,4.79.44,6.9,1.31s3.85,2.2,5.23,3.99c1.38,1.79,2.18,4.06,2.41,6.81h-4.96c-.23-1.86-.8-3.39-1.71-4.59-.91-1.2-2.05-2.08-3.42-2.66-1.37-.58-2.85-.87-4.45-.87-2.79,0-5.03.7-6.71,2.09-1.68,1.4-2.9,3.28-3.65,5.66-.75,2.38-1.13,5.03-1.13,7.98s.38,5.55,1.13,7.92c.75,2.37,1.97,4.25,3.65,5.64,1.68,1.39,3.92,2.08,6.71,2.08s5.08-.73,6.74-2.19,2.65-3.66,2.95-6.58h4.99c-.29,2.89-1.07,5.28-2.37,7.17-1.29,1.89-2.99,3.3-5.09,4.23-2.1.93-4.51,1.4-7.22,1.4Z"/>
    <path class="cls-4" d="M753.84,178.34c-3.7,0-6.78-.83-9.23-2.48s-4.29-3.96-5.51-6.91c-1.23-2.95-1.84-6.38-1.84-10.27s.61-7.32,1.84-10.29c1.22-2.96,3.06-5.28,5.51-6.94,2.45-1.66,5.53-2.49,9.23-2.49s6.75.83,9.19,2.49c2.44,1.66,4.27,3.97,5.5,6.92,1.22,2.95,1.84,6.39,1.84,10.3s-.61,7.32-1.84,10.27c-1.23,2.95-3.06,5.26-5.5,6.91-2.44,1.65-5.5,2.48-9.19,2.48ZM753.84,174.35c2.77,0,5-.69,6.67-2.08,1.67-1.39,2.89-3.27,3.65-5.64s1.14-5.02,1.14-7.95-.38-5.61-1.14-7.99-1.98-4.27-3.65-5.66c-1.67-1.39-3.89-2.08-6.67-2.08s-5,.7-6.7,2.09c-1.69,1.4-2.91,3.28-3.66,5.66-.75,2.38-1.13,5.03-1.13,7.98s.38,5.57,1.13,7.93c.75,2.37,1.97,4.25,3.66,5.64s3.92,2.09,6.7,2.09Z"/>
    <path class="cls-4" d="M777.03,177.83v-38.35h5.16l18.63,30.91v-30.91h4.56v38.35h-5.19l-18.63-30.94v30.94h-4.53Z"/>
    <path class="cls-4" d="M813.71,177.83v-38.35h21.74v4.07h-16.81v12.54h15.16v3.99h-15.16v17.75h-4.93Z"/>
    <path class="cls-4" d="M840.6,177.83v-38.35h22.22v4.07h-17.29v12.54h15.93v3.99h-15.93v13.68h17.29v4.07h-22.22Z"/>
    <path class="cls-4" d="M868.83,177.83v-38.35h12.99c2.07,0,3.96.35,5.66,1.05,1.7.7,3.05,1.8,4.06,3.31,1.01,1.5,1.51,3.44,1.51,5.81s-.61,4.47-1.84,6.17c-1.22,1.7-3.04,2.84-5.46,3.43,1.39.23,2.51.72,3.36,1.48.85.76,1.55,1.77,2.08,3.02.53,1.25,1,2.73,1.4,4.42l2.28,9.66h-5.1l-1.97-8.92c-.34-1.56-.75-2.89-1.21-4-.47-1.11-1.11-1.97-1.94-2.56-.83-.6-1.95-.9-3.38-.9h-7.52v16.38h-4.93ZM873.76,157.37h7.41c1.29,0,2.46-.28,3.49-.84s1.86-1.36,2.48-2.41c.62-1.04.93-2.29.93-3.73,0-2.17-.57-3.85-1.72-5.04s-2.83-1.79-5.06-1.79h-7.52v13.82Z"/>
    <path class="cls-4" d="M900.59,177.83v-38.35h22.22v4.07h-17.29v12.54h15.93v3.99h-15.93v13.68h17.29v4.07h-22.22Z"/>
    <path class="cls-4" d="M928.82,177.83v-38.35h5.16l18.63,30.91v-30.91h4.56v38.35h-5.19l-18.63-30.94v30.94h-4.53Z"/>
    <path class="cls-4" d="M980.38,178.34c-3.67,0-6.73-.83-9.19-2.48s-4.31-3.96-5.54-6.91c-1.23-2.95-1.85-6.38-1.85-10.27s.62-7.35,1.85-10.3c1.24-2.95,3.08-5.26,5.54-6.92,2.46-1.66,5.52-2.49,9.19-2.49,2.49,0,4.79.44,6.9,1.31s3.85,2.2,5.23,3.99c1.38,1.79,2.18,4.06,2.41,6.81h-4.96c-.23-1.86-.8-3.39-1.71-4.59-.91-1.2-2.05-2.08-3.42-2.66-1.37-.58-2.85-.87-4.45-.87-2.79,0-5.03.7-6.71,2.09-1.68,1.4-2.9,3.28-3.65,5.66-.75,2.38-1.13,5.03-1.13,7.98s.38,5.55,1.13,7.92c.75,2.37,1.97,4.25,3.65,5.64,1.68,1.39,3.92,2.08,6.71,2.08s5.08-.73,6.74-2.19,2.65-3.66,2.95-6.58h4.99c-.29,2.89-1.07,5.28-2.37,7.17-1.29,1.89-2.99,3.3-5.09,4.23-2.1.93-4.51,1.4-7.22,1.4Z"/>
    <path class="cls-4" d="M1001.4,177.83v-38.35h22.22v4.07h-17.29v12.54h15.93v3.99h-15.93v13.68h17.29v4.07h-22.22Z"/>
  </g>
</svg>